<?xml version="1.0" encoding="UTF-8"?>
<svg xmlns="http://www.w3.org/2000/svg" version="1.1" width="882" height="330" viewBox="0 0 882 330"><rect x="0" y="0" width="882" height="330" fill="#FFFFFF" /><defs><marker id="m_1334578205_i" markerWidth="8" markerHeight="6" refX="8" refY="3" orient="auto"><path d="M 0,0 L 8,3 L 0,6 Z" fill="#03A9F4" /></marker><marker id="m_1334578205_o" markerWidth="8" markerHeight="6" refX="8" refY="3" orient="auto"><path d="M 0,0 L 8,3 L 0,6 Z" fill="#64DD17" /></marker><marker id="m_874222866_i" markerWidth="8" markerHeight="6" refX="8" refY="3" orient="auto"><path d="M 0,0 L 8,3 L 0,6 Z" fill="#00E5FF" /></marker><marker id="m_874222866_o" markerWidth="8" markerHeight="6" refX="8" refY="3" orient="auto"><path d="M 0,0 L 8,3 L 0,6 Z" fill="#69F0AE" /></marker><marker id="m_1737575463_i" markerWidth="8" markerHeight="6" refX="8" refY="3" orient="auto"><path d="M 0,0 L 8,3 L 0,6 Z" fill="#4FC3F7" /></marker><marker id="m_1737575463_o" markerWidth="8" markerHeight="6" refX="8" refY="3" orient="auto"><path d="M 0,0 L 8,3 L 0,6 Z" fill="#00C853" /></marker><marker id="m_neutral_i" markerWidth="8" markerHeight="6" refX="8" refY="3" orient="auto"><path d="M 0,0 L 8,3 L 0,6 Z" fill="#888888" /></marker><marker id="m_neutral_o" markerWidth="8" markerHeight="6" refX="8" refY="3" orient="auto"><path d="M 0,0 L 8,3 L 0,6 Z" fill="#888888" /></marker></defs><text x="441" y="25" font-family="sans-serif" font-size="14" font-weight="bold" fill="#222222" text-anchor="middle">iic_top</text><rect x="265" y="40" width="457" height="284" rx="8" ry="8" fill="#FFFFFF" stroke="#888888" stroke-width="1.5" /><text x="229" y="66" font-family="sans-serif" font-size="12" fill="#222222" text-anchor="end">clk</text><line x1="237" y1="62" x2="265" y2="62" stroke="#03A9F4" stroke-width="1.5" marker-end="url(#m_1334578205_i)" /><text x="229" y="90" font-family="sans-serif" font-size="12" fill="#222222" text-anchor="end">rst_n</text><line x1="237" y1="86" x2="265" y2="86" stroke="#03A9F4" stroke-width="1.5" marker-end="url(#m_1334578205_i)" /><text x="229" y="114" font-family="sans-serif" font-size="12" fill="#222222" text-anchor="end">iic_scl_in</text><line x1="237" y1="110" x2="265" y2="110" stroke="#4FC3F7" stroke-width="1.5" marker-end="url(#m_1737575463_i)" /><text x="229" y="138" font-family="sans-serif" font-size="12" fill="#222222" text-anchor="end">iic_sda_in</text><line x1="237" y1="134" x2="265" y2="134" stroke="#4FC3F7" stroke-width="1.5" marker-end="url(#m_1737575463_i)" /><text x="229" y="162" font-family="sans-serif" font-size="12" fill="#222222" text-anchor="end">temperature_value_a[REG_DW-1:0]</text><line x1="237" y1="158" x2="265" y2="158" stroke="#00E5FF" stroke-width="1.5" marker-end="url(#m_874222866_i)" /><text x="229" y="186" font-family="sans-serif" font-size="12" fill="#222222" text-anchor="end">temperature_valid_a</text><line x1="237" y1="182" x2="265" y2="182" stroke="#00E5FF" stroke-width="1.5" marker-end="url(#m_874222866_i)" /><text x="229" y="210" font-family="sans-serif" font-size="12" fill="#222222" text-anchor="end">temperature_value_b[REG_DW-1:0]</text><line x1="237" y1="206" x2="265" y2="206" stroke="#00E5FF" stroke-width="1.5" marker-end="url(#m_874222866_i)" /><text x="229" y="234" font-family="sans-serif" font-size="12" fill="#222222" text-anchor="end">temperature_valid_b</text><line x1="237" y1="230" x2="265" y2="230" stroke="#00E5FF" stroke-width="1.5" marker-end="url(#m_874222866_i)" /><text x="758" y="66" font-family="sans-serif" font-size="12" fill="#222222" text-anchor="start">iic_scl_oe</text><line x1="722" y1="62" x2="750" y2="62" stroke="#00C853" stroke-width="1.5" marker-end="url(#m_1737575463_o)" /><text x="758" y="90" font-family="sans-serif" font-size="12" fill="#222222" text-anchor="start">iic_scl_out</text><line x1="722" y1="86" x2="750" y2="86" stroke="#00C853" stroke-width="1.5" marker-end="url(#m_1737575463_o)" /><text x="758" y="114" font-family="sans-serif" font-size="12" fill="#222222" text-anchor="start">iic_sda_oe</text><line x1="722" y1="110" x2="750" y2="110" stroke="#00C853" stroke-width="1.5" marker-end="url(#m_1737575463_o)" /><text x="758" y="138" font-family="sans-serif" font-size="12" fill="#222222" text-anchor="start">iic_sda_out</text><line x1="722" y1="134" x2="750" y2="134" stroke="#00C853" stroke-width="1.5" marker-end="url(#m_1737575463_o)" /><text x="758" y="162" font-family="sans-serif" font-size="12" fill="#222222" text-anchor="start">temperature_clk</text><line x1="722" y1="158" x2="750" y2="158" stroke="#69F0AE" stroke-width="1.5" marker-end="url(#m_874222866_o)" /><text x="758" y="186" font-family="sans-serif" font-size="12" fill="#222222" text-anchor="start">temperature_pd_a</text><line x1="722" y1="182" x2="750" y2="182" stroke="#69F0AE" stroke-width="1.5" marker-end="url(#m_874222866_o)" /><text x="758" y="210" font-family="sans-serif" font-size="12" fill="#222222" text-anchor="start">temperature_st_a</text><line x1="722" y1="206" x2="750" y2="206" stroke="#69F0AE" stroke-width="1.5" marker-end="url(#m_874222866_o)" /><text x="758" y="234" font-family="sans-serif" font-size="12" fill="#222222" text-anchor="start">temperature_ed_a</text><line x1="722" y1="230" x2="750" y2="230" stroke="#69F0AE" stroke-width="1.5" marker-end="url(#m_874222866_o)" /><text x="758" y="258" font-family="sans-serif" font-size="12" fill="#222222" text-anchor="start">temperature_pd_b</text><line x1="722" y1="254" x2="750" y2="254" stroke="#69F0AE" stroke-width="1.5" marker-end="url(#m_874222866_o)" /><text x="758" y="282" font-family="sans-serif" font-size="12" fill="#222222" text-anchor="start">temperature_st_b</text><line x1="722" y1="278" x2="750" y2="278" stroke="#69F0AE" stroke-width="1.5" marker-end="url(#m_874222866_o)" /><text x="758" y="306" font-family="sans-serif" font-size="12" fill="#222222" text-anchor="start">temperature_ed_b</text><line x1="722" y1="302" x2="750" y2="302" stroke="#69F0AE" stroke-width="1.5" marker-end="url(#m_874222866_o)" /></svg>
