<?xml version="1.0" encoding="UTF-8"?>
<svg xmlns="http://www.w3.org/2000/svg" version="1.1" width="1092" height="858" viewBox="0 0 1092 858"><rect x="0" y="0" width="1092" height="858" fill="#FFFFFF" /><text x="546" y="32" font-family="sans-serif" font-size="14" font-weight="bold" fill="#222222" text-anchor="middle">iic_top</text><rect x="160" y="40" width="772" height="778" rx="8" fill="#FFFFFF" stroke="#888888" stroke-width="2" /><text x="152" y="100" font-size="10" fill="#03A9F4" text-anchor="end">clk</text><line x1="128" y1="95" x2="160" y2="95" stroke="#03A9F4" stroke-width="1.5" /><text x="152" y="114" font-size="10" fill="#03A9F4" text-anchor="end">rst_n</text><line x1="128" y1="109" x2="160" y2="109" stroke="#03A9F4" stroke-width="1.5" /><text x="152" y="128" font-size="10" fill="#4FC3F7" text-anchor="end">iic_scl_in</text><line x1="128" y1="123" x2="160" y2="123" stroke="#4FC3F7" stroke-width="1.5" /><text x="152" y="142" font-size="10" fill="#4FC3F7" text-anchor="end">iic_sda_in</text><line x1="128" y1="137" x2="160" y2="137" stroke="#4FC3F7" stroke-width="1.5" /><text x="152" y="156" font-size="10" fill="#00E5FF" text-anchor="end">temperature_value_a</text><line x1="128" y1="151" x2="160" y2="151" stroke="#00E5FF" stroke-width="1.5" /><text x="152" y="170" font-size="10" fill="#00E5FF" text-anchor="end">temperature_valid_a</text><line x1="128" y1="165" x2="160" y2="165" stroke="#00E5FF" stroke-width="1.5" /><text x="152" y="184" font-size="10" fill="#00E5FF" text-anchor="end">temperature_value_b</text><line x1="128" y1="179" x2="160" y2="179" stroke="#00E5FF" stroke-width="1.5" /><text x="152" y="198" font-size="10" fill="#00E5FF" text-anchor="end">temperature_valid_b</text><line x1="128" y1="193" x2="160" y2="193" stroke="#00E5FF" stroke-width="1.5" /><text x="940" y="100" font-size="10" fill="#00C853" text-anchor="start">iic_scl_oe</text><line x1="932" y1="95" x2="964" y2="95" stroke="#00C853" stroke-width="1.5" /><text x="940" y="114" font-size="10" fill="#00C853" text-anchor="start">iic_scl_out</text><line x1="932" y1="109" x2="964" y2="109" stroke="#00C853" stroke-width="1.5" /><text x="940" y="128" font-size="10" fill="#00C853" text-anchor="start">iic_sda_oe</text><line x1="932" y1="123" x2="964" y2="123" stroke="#00C853" stroke-width="1.5" /><text x="940" y="142" font-size="10" fill="#00C853" text-anchor="start">iic_sda_out</text><line x1="932" y1="137" x2="964" y2="137" stroke="#00C853" stroke-width="1.5" /><text x="940" y="156" font-size="10" fill="#69F0AE" text-anchor="start">temperature_clk</text><line x1="932" y1="151" x2="964" y2="151" stroke="#69F0AE" stroke-width="1.5" /><text x="940" y="170" font-size="10" fill="#69F0AE" text-anchor="start">temperature_pd_a</text><line x1="932" y1="165" x2="964" y2="165" stroke="#69F0AE" stroke-width="1.5" /><text x="940" y="184" font-size="10" fill="#69F0AE" text-anchor="start">temperature_st_a</text><line x1="932" y1="179" x2="964" y2="179" stroke="#69F0AE" stroke-width="1.5" /><text x="940" y="198" font-size="10" fill="#69F0AE" text-anchor="start">temperature_ed_a</text><line x1="932" y1="193" x2="964" y2="193" stroke="#69F0AE" stroke-width="1.5" /><text x="940" y="212" font-size="10" fill="#69F0AE" text-anchor="start">temperature_pd_b</text><line x1="932" y1="207" x2="964" y2="207" stroke="#69F0AE" stroke-width="1.5" /><text x="940" y="226" font-size="10" fill="#69F0AE" text-anchor="start">temperature_st_b</text><line x1="932" y1="221" x2="964" y2="221" stroke="#69F0AE" stroke-width="1.5" /><text x="940" y="240" font-size="10" fill="#69F0AE" text-anchor="start">temperature_ed_b</text><line x1="932" y1="235" x2="964" y2="235" stroke="#69F0AE" stroke-width="1.5" /><rect x="184" y="92" width="192" height="288" rx="4" fill="#FFFFFF" stroke="#BBBBBB" stroke-width="1" /><text x="280" y="106" font-size="11" font-weight="bold" fill="#222222" text-anchor="middle">iic_slave</text><text x="190" y="123" font-size="9" fill="#03A9F4" text-anchor="start">← clk</text><text x="190" y="137" font-size="9" fill="#03A9F4" text-anchor="start">← rst_n</text><text x="190" y="151" font-size="9" fill="#4FC3F7" text-anchor="start">← iic_scl_in</text><text x="370" y="165" font-size="9" fill="#00C853" text-anchor="end">iic_scl_oe →</text><text x="370" y="179" font-size="9" fill="#00C853" text-anchor="end">iic_scl_out →</text><text x="190" y="193" font-size="9" fill="#4FC3F7" text-anchor="start">← iic_sda_in</text><text x="370" y="207" font-size="9" fill="#00C853" text-anchor="end">iic_sda_oe →</text><text x="370" y="221" font-size="9" fill="#00C853" text-anchor="end">iic_sda_out →</text><text x="370" y="235" font-size="9" fill="#64DD17" text-anchor="end">iic_slave_busy →</text><text x="370" y="249" font-size="9" fill="#64DD17" text-anchor="end">reg_cfg_wr_en →</text><text x="370" y="263" font-size="9" fill="#64DD17" text-anchor="end">reg_cfg_addr →</text><text x="370" y="277" font-size="9" fill="#64DD17" text-anchor="end">reg_cfg_wr_data →</text><text x="370" y="291" font-size="9" fill="#64DD17" text-anchor="end">reg_cfg_rd_en →</text><text x="190" y="305" font-size="9" fill="#03A9F4" text-anchor="start">← reg_cfg_rd_valid</text><text x="190" y="319" font-size="9" fill="#03A9F4" text-anchor="start">← reg_cfg_rd_data</text><rect x="400" y="92" width="192" height="288" rx="4" fill="#FFFFFF" stroke="#BBBBBB" stroke-width="1" /><text x="496" y="106" font-size="11" font-weight="bold" fill="#222222" text-anchor="middle">reg_cfg</text><text x="406" y="123" font-size="9" fill="#03A9F4" text-anchor="start">← clk</text><text x="406" y="137" font-size="9" fill="#03A9F4" text-anchor="start">← rst_n</text><text x="406" y="151" font-size="9" fill="#03A9F4" text-anchor="start">← reg_cfg_wr_en</text><text x="406" y="165" font-size="9" fill="#03A9F4" text-anchor="start">← reg_cfg_addr</text><text x="406" y="179" font-size="9" fill="#03A9F4" text-anchor="start">← reg_cfg_wr_data</text><text x="406" y="193" font-size="9" fill="#03A9F4" text-anchor="start">← reg_cfg_rd_en</text><text x="586" y="207" font-size="9" fill="#64DD17" text-anchor="end">reg_cfg_rd_valid →</text><text x="586" y="221" font-size="9" fill="#64DD17" text-anchor="end">reg_cfg_rd_data →</text><text x="406" y="235" font-size="9" fill="#00E5FF" text-anchor="start">← temperature_value_a</text><text x="406" y="249" font-size="9" fill="#00E5FF" text-anchor="start">← temperature_valid_a</text><text x="406" y="263" font-size="9" fill="#00E5FF" text-anchor="start">← temperature_value_b</text><text x="406" y="277" font-size="9" fill="#00E5FF" text-anchor="start">← temperature_valid_b</text><text x="586" y="291" font-size="9" fill="#64DD17" text-anchor="end">reg_adc_pd_a →</text><text x="586" y="305" font-size="9" fill="#64DD17" text-anchor="end">reg_adc_st_a →</text><text x="586" y="319" font-size="9" fill="#64DD17" text-anchor="end">reg_adc_ed_a →</text><text x="586" y="333" font-size="9" fill="#64DD17" text-anchor="end">reg_adc_pd_b →</text><text x="586" y="347" font-size="9" fill="#64DD17" text-anchor="end">reg_adc_st_b →</text><text x="586" y="361" font-size="9" fill="#64DD17" text-anchor="end">reg_adc_ed_b →</text><rect x="616" y="92" width="192" height="288" rx="4" fill="#FFFFFF" stroke="#BBBBBB" stroke-width="1" /><text x="712" y="106" font-size="11" font-weight="bold" fill="#222222" text-anchor="middle">tempsensor_crg</text><text x="622" y="123" font-size="9" fill="#03A9F4" text-anchor="start">← clk</text><text x="622" y="137" font-size="9" fill="#03A9F4" text-anchor="start">← rst_n</text><text x="802" y="151" font-size="9" fill="#C6FF00" text-anchor="end">temperature_clk →</text><text x="802" y="165" font-size="9" fill="#C6FF00" text-anchor="end">temperature_rst_n →</text><rect x="184" y="404" width="192" height="288" rx="4" fill="#FFFFFF" stroke="#BBBBBB" stroke-width="1" /><text x="280" y="418" font-size="11" font-weight="bold" fill="#222222" text-anchor="middle">tempsensor</text><text x="190" y="435" font-size="9" fill="#03A9F4" text-anchor="start">← clk</text><text x="190" y="449" font-size="9" fill="#03A9F4" text-anchor="start">← rst_n</text><text x="190" y="463" font-size="9" fill="#03A9F4" text-anchor="start">← reg_adc_pd_a</text><text x="190" y="477" font-size="9" fill="#03A9F4" text-anchor="start">← reg_adc_st_a</text><text x="190" y="491" font-size="9" fill="#03A9F4" text-anchor="start">← reg_adc_ed_a</text><text x="190" y="505" font-size="9" fill="#03A9F4" text-anchor="start">← reg_adc_pd_b</text><text x="190" y="519" font-size="9" fill="#03A9F4" text-anchor="start">← reg_adc_st_b</text><text x="190" y="533" font-size="9" fill="#03A9F4" text-anchor="start">← reg_adc_ed_b</text><text x="370" y="547" font-size="9" fill="#64DD17" text-anchor="end">temperature_pd_a →</text><text x="370" y="561" font-size="9" fill="#64DD17" text-anchor="end">temperature_st_a →</text><text x="370" y="575" font-size="9" fill="#64DD17" text-anchor="end">temperature_ed_a →</text><text x="370" y="589" font-size="9" fill="#64DD17" text-anchor="end">temperature_pd_b →</text><text x="370" y="603" font-size="9" fill="#64DD17" text-anchor="end">temperature_st_b →</text><text x="370" y="617" font-size="9" fill="#64DD17" text-anchor="end">temperature_ed_b →</text><line x1="376" y1="246" x2="400" y2="148" stroke="#999999" stroke-width="1" stroke-dasharray="4,2" /><text x="388" y="193" font-size="8" fill="#999999" text-anchor="middle">reg_cfg_wr_en</text><line x1="376" y1="260" x2="400" y2="162" stroke="#999999" stroke-width="1" stroke-dasharray="4,2" /><text x="388" y="207" font-size="8" fill="#999999" text-anchor="middle">reg_cfg_addr</text><line x1="376" y1="274" x2="400" y2="176" stroke="#999999" stroke-width="1" stroke-dasharray="4,2" /><text x="388" y="221" font-size="8" fill="#999999" text-anchor="middle">reg_cfg_wr_data</text><line x1="376" y1="288" x2="400" y2="190" stroke="#999999" stroke-width="1" stroke-dasharray="4,2" /><text x="388" y="235" font-size="8" fill="#999999" text-anchor="middle">reg_cfg_rd_en</text><line x1="592" y1="204" x2="184" y2="302" stroke="#999999" stroke-width="1" stroke-dasharray="4,2" /><text x="388" y="249" font-size="8" fill="#999999" text-anchor="middle">reg_cfg_rd_valid</text><line x1="592" y1="218" x2="184" y2="316" stroke="#999999" stroke-width="1" stroke-dasharray="4,2" /><text x="388" y="263" font-size="8" fill="#999999" text-anchor="middle">reg_cfg_rd_data</text><line x1="592" y1="288" x2="184" y2="460" stroke="#999999" stroke-width="1" stroke-dasharray="4,2" /><text x="388" y="370" font-size="8" fill="#999999" text-anchor="middle">reg_adc_pd_a</text><line x1="592" y1="302" x2="184" y2="474" stroke="#999999" stroke-width="1" stroke-dasharray="4,2" /><text x="388" y="384" font-size="8" fill="#999999" text-anchor="middle">reg_adc_st_a</text><line x1="592" y1="316" x2="184" y2="488" stroke="#999999" stroke-width="1" stroke-dasharray="4,2" /><text x="388" y="398" font-size="8" fill="#999999" text-anchor="middle">reg_adc_ed_a</text><line x1="592" y1="330" x2="184" y2="502" stroke="#999999" stroke-width="1" stroke-dasharray="4,2" /><text x="388" y="412" font-size="8" fill="#999999" text-anchor="middle">reg_adc_pd_b</text><line x1="592" y1="344" x2="184" y2="516" stroke="#999999" stroke-width="1" stroke-dasharray="4,2" /><text x="388" y="426" font-size="8" fill="#999999" text-anchor="middle">reg_adc_st_b</text><line x1="592" y1="358" x2="184" y2="530" stroke="#999999" stroke-width="1" stroke-dasharray="4,2" /><text x="388" y="440" font-size="8" fill="#999999" text-anchor="middle">reg_adc_ed_b</text></svg>
