<?xml version="1.0" encoding="UTF-8"?>
<svg xmlns="http://www.w3.org/2000/svg" version="1.1" width="1036" height="306" viewBox="0 0 1036 306"><rect x="0" y="0" width="1036" height="306" fill="#FFFFFF" /><defs><marker id="m_1334578205_i" markerWidth="8" markerHeight="6" refX="8" refY="3" orient="auto"><path d="M 0,0 L 8,3 L 0,6 Z" fill="#03A9F4" /></marker><marker id="m_1334578205_o" markerWidth="8" markerHeight="6" refX="8" refY="3" orient="auto"><path d="M 0,0 L 8,3 L 0,6 Z" fill="#64DD17" /></marker><marker id="m_874222866_i" markerWidth="8" markerHeight="6" refX="8" refY="3" orient="auto"><path d="M 0,0 L 8,3 L 0,6 Z" fill="#00E5FF" /></marker><marker id="m_874222866_o" markerWidth="8" markerHeight="6" refX="8" refY="3" orient="auto"><path d="M 0,0 L 8,3 L 0,6 Z" fill="#69F0AE" /></marker><marker id="m_neutral_i" markerWidth="8" markerHeight="6" refX="8" refY="3" orient="auto"><path d="M 0,0 L 8,3 L 0,6 Z" fill="#888888" /></marker><marker id="m_neutral_o" markerWidth="8" markerHeight="6" refX="8" refY="3" orient="auto"><path d="M 0,0 L 8,3 L 0,6 Z" fill="#888888" /></marker></defs><text x="518" y="25" font-family="sans-serif" font-size="14" font-weight="bold" fill="#222222" text-anchor="middle">reg_cfg</text><rect x="265" y="40" width="534" height="260" rx="8" ry="8" fill="#FFFFFF" stroke="#888888" stroke-width="1.5" /><text x="229" y="66" font-family="sans-serif" font-size="12" fill="#222222" text-anchor="end">clk</text><line x1="237" y1="62" x2="265" y2="62" stroke="#03A9F4" stroke-width="1.5" marker-end="url(#m_1334578205_i)" /><text x="229" y="90" font-family="sans-serif" font-size="12" fill="#222222" text-anchor="end">rst_n</text><line x1="237" y1="86" x2="265" y2="86" stroke="#03A9F4" stroke-width="1.5" marker-end="url(#m_1334578205_i)" /><text x="229" y="114" font-family="sans-serif" font-size="12" fill="#222222" text-anchor="end">reg_cfg_wr_en</text><line x1="237" y1="110" x2="265" y2="110" stroke="#03A9F4" stroke-width="1.5" marker-end="url(#m_1334578205_i)" /><text x="229" y="138" font-family="sans-serif" font-size="12" fill="#222222" text-anchor="end">reg_cfg_addr[REG_AW-1:0]</text><line x1="237" y1="134" x2="265" y2="134" stroke="#03A9F4" stroke-width="1.5" marker-end="url(#m_1334578205_i)" /><text x="229" y="162" font-family="sans-serif" font-size="12" fill="#222222" text-anchor="end">reg_cfg_wr_data[REG_DW-1:0]</text><line x1="237" y1="158" x2="265" y2="158" stroke="#03A9F4" stroke-width="1.5" marker-end="url(#m_1334578205_i)" /><text x="229" y="186" font-family="sans-serif" font-size="12" fill="#222222" text-anchor="end">reg_cfg_rd_en</text><line x1="237" y1="182" x2="265" y2="182" stroke="#03A9F4" stroke-width="1.5" marker-end="url(#m_1334578205_i)" /><text x="229" y="210" font-family="sans-serif" font-size="12" fill="#222222" text-anchor="end">temperature_value_a[REG_DW-1:0]</text><line x1="237" y1="206" x2="265" y2="206" stroke="#00E5FF" stroke-width="1.5" marker-end="url(#m_874222866_i)" /><text x="229" y="234" font-family="sans-serif" font-size="12" fill="#222222" text-anchor="end">temperature_valid_a</text><line x1="237" y1="230" x2="265" y2="230" stroke="#00E5FF" stroke-width="1.5" marker-end="url(#m_874222866_i)" /><text x="229" y="258" font-family="sans-serif" font-size="12" fill="#222222" text-anchor="end">temperature_value_b[REG_DW-1:0]</text><line x1="237" y1="254" x2="265" y2="254" stroke="#00E5FF" stroke-width="1.5" marker-end="url(#m_874222866_i)" /><text x="229" y="282" font-family="sans-serif" font-size="12" fill="#222222" text-anchor="end">temperature_valid_b</text><line x1="237" y1="278" x2="265" y2="278" stroke="#00E5FF" stroke-width="1.5" marker-end="url(#m_874222866_i)" /><text x="835" y="66" font-family="sans-serif" font-size="12" fill="#222222" text-anchor="start">reg_cfg_rd_valid</text><line x1="799" y1="62" x2="827" y2="62" stroke="#64DD17" stroke-width="1.5" marker-end="url(#m_1334578205_o)" /><text x="835" y="90" font-family="sans-serif" font-size="12" fill="#222222" text-anchor="start">reg_cfg_rd_data[REG_DW-1:0]</text><line x1="799" y1="86" x2="827" y2="86" stroke="#64DD17" stroke-width="1.5" marker-end="url(#m_1334578205_o)" /><text x="835" y="114" font-family="sans-serif" font-size="12" fill="#222222" text-anchor="start">reg_adc_pd_a</text><line x1="799" y1="110" x2="827" y2="110" stroke="#64DD17" stroke-width="1.5" marker-end="url(#m_1334578205_o)" /><text x="835" y="138" font-family="sans-serif" font-size="12" fill="#222222" text-anchor="start">reg_adc_st_a</text><line x1="799" y1="134" x2="827" y2="134" stroke="#64DD17" stroke-width="1.5" marker-end="url(#m_1334578205_o)" /><text x="835" y="162" font-family="sans-serif" font-size="12" fill="#222222" text-anchor="start">reg_adc_ed_a</text><line x1="799" y1="158" x2="827" y2="158" stroke="#64DD17" stroke-width="1.5" marker-end="url(#m_1334578205_o)" /><text x="835" y="186" font-family="sans-serif" font-size="12" fill="#222222" text-anchor="start">reg_adc_pd_b</text><line x1="799" y1="182" x2="827" y2="182" stroke="#64DD17" stroke-width="1.5" marker-end="url(#m_1334578205_o)" /><text x="835" y="210" font-family="sans-serif" font-size="12" fill="#222222" text-anchor="start">reg_adc_st_b</text><line x1="799" y1="206" x2="827" y2="206" stroke="#64DD17" stroke-width="1.5" marker-end="url(#m_1334578205_o)" /><text x="835" y="234" font-family="sans-serif" font-size="12" fill="#222222" text-anchor="start">reg_adc_ed_b</text><line x1="799" y1="230" x2="827" y2="230" stroke="#64DD17" stroke-width="1.5" marker-end="url(#m_1334578205_o)" /></svg>
